<svg width="86" height="75" viewBox="0 0 86 75" fill="none" xmlns="http://www.w3.org/2000/svg">
<g opacity="0.3">
<mask id="mask0_1_71" style="mask-type:alpha" maskUnits="userSpaceOnUse" x="0" y="0" width="8" height="8">
<path d="M3.90962 7.89496C6.06885 7.89496 7.81925 6.18354 7.81925 4.07246C7.81925 1.96137 6.06885 0.25 3.90962 0.25C1.7504 0.25 0 1.96137 0 4.07246C0 6.18354 1.7504 7.89496 3.90962 7.89496Z" fill="url(#paint0_linear_1_71)"/>
</mask>
<g mask="url(#mask0_1_71)">
<path d="M3.90962 7.89496C6.06885 7.89496 7.81925 6.18354 7.81925 4.07246C7.81925 1.96137 6.06885 0.25 3.90962 0.25C1.7504 0.25 0 1.96137 0 4.07246C0 6.18354 1.7504 7.89496 3.90962 7.89496Z" fill="url(#paint1_linear_1_71)"/>
</g>
<mask id="mask1_1_71" style="mask-type:alpha" maskUnits="userSpaceOnUse" x="22" y="0" width="9" height="8">
<path d="M26.5525 7.89496C28.7117 7.89496 30.4621 6.18354 30.4621 4.07246C30.4621 1.96137 28.7117 0.25 26.5525 0.25C24.3933 0.25 22.6429 1.96137 22.6429 4.07246C22.6429 6.18354 24.3933 7.89496 26.5525 7.89496Z" fill="url(#paint2_linear_1_71)"/>
</mask>
<g mask="url(#mask1_1_71)">
<path d="M26.5529 7.89496C28.7121 7.89496 30.4625 6.18354 30.4625 4.07246C30.4625 1.96137 28.7121 0.25 26.5529 0.25C24.3937 0.25 22.6432 1.96137 22.6432 4.07246C22.6432 6.18354 24.3937 7.89496 26.5529 7.89496Z" fill="url(#paint3_linear_1_71)"/>
</g>
<mask id="mask2_1_71" style="mask-type:alpha" maskUnits="userSpaceOnUse" x="45" y="0" width="9" height="8">
<path d="M49.1953 7.89496C51.3546 7.89496 53.105 6.18354 53.105 4.07246C53.105 1.96137 51.3546 0.25 49.1953 0.25C47.0361 0.25 45.2857 1.96137 45.2857 4.07246C45.2857 6.18354 47.0361 7.89496 49.1953 7.89496Z" fill="url(#paint4_linear_1_71)"/>
</mask>
<g mask="url(#mask2_1_71)">
<path d="M49.196 7.89496C51.3552 7.89496 53.1056 6.18354 53.1056 4.07246C53.1056 1.96137 51.3552 0.25 49.196 0.25C47.0368 0.25 45.2864 1.96137 45.2864 4.07246C45.2864 6.18354 47.0368 7.89496 49.196 7.89496Z" fill="url(#paint5_linear_1_71)"/>
</g>
<mask id="mask3_1_71" style="mask-type:alpha" maskUnits="userSpaceOnUse" x="67" y="0" width="9" height="8">
<path d="M71.8382 7.89496C73.9974 7.89496 75.7478 6.18354 75.7478 4.07246C75.7478 1.96137 73.9974 0.25 71.8382 0.25C69.6789 0.25 67.9285 1.96137 67.9285 4.07246C67.9285 6.18354 69.6789 7.89496 71.8382 7.89496Z" fill="url(#paint6_linear_1_71)"/>
</mask>
<g mask="url(#mask3_1_71)">
<path d="M71.8388 7.89496C73.998 7.89496 75.7484 6.18354 75.7484 4.07246C75.7484 1.96137 73.998 0.25 71.8388 0.25C69.6795 0.25 67.9291 1.96137 67.9291 4.07246C67.9291 6.18354 69.6795 7.89496 71.8388 7.89496Z" fill="url(#paint7_linear_1_71)"/>
</g>
<mask id="mask4_1_71" style="mask-type:alpha" maskUnits="userSpaceOnUse" x="0" y="19" width="8" height="9">
<path d="M3.90962 27.0868C6.06885 27.0868 7.81925 25.3755 7.81925 23.2644C7.81925 21.1533 6.06885 19.442 3.90962 19.442C1.7504 19.442 0 21.1533 0 23.2644C0 25.3755 1.7504 27.0868 3.90962 27.0868Z" fill="url(#paint8_linear_1_71)"/>
</mask>
<g mask="url(#mask4_1_71)">
<path d="M3.90962 27.0869C6.06885 27.0869 7.81925 25.3755 7.81925 23.2645C7.81925 21.1534 6.06885 19.442 3.90962 19.442C1.7504 19.442 0 21.1534 0 23.2645C0 25.3755 1.7504 27.0869 3.90962 27.0869Z" fill="url(#paint9_linear_1_71)"/>
</g>
<mask id="mask5_1_71" style="mask-type:alpha" maskUnits="userSpaceOnUse" x="22" y="19" width="9" height="9">
<path d="M26.5525 27.0869C28.7117 27.0869 30.4621 25.3756 30.4621 23.2645C30.4621 21.1534 28.7117 19.442 26.5525 19.442C24.3933 19.442 22.6429 21.1534 22.6429 23.2645C22.6429 25.3756 24.3933 27.0869 26.5525 27.0869Z" fill="url(#paint10_linear_1_71)"/>
</mask>
<g mask="url(#mask5_1_71)">
<path d="M26.5529 27.0869C28.7121 27.0869 30.4625 25.3755 30.4625 23.2644C30.4625 21.1533 28.7121 19.442 26.5529 19.442C24.3937 19.442 22.6432 21.1533 22.6432 23.2644C22.6432 25.3755 24.3937 27.0869 26.5529 27.0869Z" fill="url(#paint11_linear_1_71)"/>
</g>
<mask id="mask6_1_71" style="mask-type:alpha" maskUnits="userSpaceOnUse" x="45" y="19" width="9" height="9">
<path d="M49.1953 27.0869C51.3546 27.0869 53.105 25.3756 53.105 23.2645C53.105 21.1534 51.3546 19.442 49.1953 19.442C47.0361 19.442 45.2857 21.1534 45.2857 23.2645C45.2857 25.3756 47.0361 27.0869 49.1953 27.0869Z" fill="url(#paint12_linear_1_71)"/>
</mask>
<g mask="url(#mask6_1_71)">
<path d="M49.196 27.0869C51.3552 27.0869 53.1056 25.3755 53.1056 23.2644C53.1056 21.1533 51.3552 19.442 49.196 19.442C47.0368 19.442 45.2864 21.1533 45.2864 23.2644C45.2864 25.3755 47.0368 27.0869 49.196 27.0869Z" fill="url(#paint13_linear_1_71)"/>
</g>
<mask id="mask7_1_71" style="mask-type:alpha" maskUnits="userSpaceOnUse" x="67" y="19" width="9" height="9">
<path d="M71.8382 27.0869C73.9974 27.0869 75.7478 25.3756 75.7478 23.2645C75.7478 21.1534 73.9974 19.442 71.8382 19.442C69.6789 19.442 67.9285 21.1534 67.9285 23.2645C67.9285 25.3756 69.6789 27.0869 71.8382 27.0869Z" fill="url(#paint14_linear_1_71)"/>
</mask>
<g mask="url(#mask7_1_71)">
<path d="M71.8388 27.0869C73.998 27.0869 75.7484 25.3755 75.7484 23.2644C75.7484 21.1533 73.998 19.442 71.8388 19.442C69.6795 19.442 67.9291 21.1533 67.9291 23.2644C67.9291 25.3755 69.6795 27.0869 71.8388 27.0869Z" fill="url(#paint15_linear_1_71)"/>
</g>
<mask id="mask8_1_71" style="mask-type:alpha" maskUnits="userSpaceOnUse" x="0" y="38" width="8" height="9">
<path d="M3.90962 46.2391C6.06885 46.2391 7.81925 44.5278 7.81925 42.4167C7.81925 40.3056 6.06885 38.5942 3.90962 38.5942C1.7504 38.5942 0 40.3056 0 42.4167C0 44.5278 1.7504 46.2391 3.90962 46.2391Z" fill="url(#paint16_linear_1_71)"/>
</mask>
<g mask="url(#mask8_1_71)">
<path d="M3.90962 46.2392C6.06885 46.2392 7.81925 44.5279 7.81925 42.4167C7.81925 40.3056 6.06885 38.5943 3.90962 38.5943C1.7504 38.5943 0 40.3056 0 42.4167C0 44.5279 1.7504 46.2392 3.90962 46.2392Z" fill="url(#paint17_linear_1_71)"/>
</g>
<mask id="mask9_1_71" style="mask-type:alpha" maskUnits="userSpaceOnUse" x="22" y="38" width="9" height="9">
<path d="M26.5525 46.2394C28.7117 46.2394 30.4621 44.528 30.4621 42.4169C30.4621 40.3058 28.7117 38.5945 26.5525 38.5945C24.3933 38.5945 22.6429 40.3058 22.6429 42.4169C22.6429 44.528 24.3933 46.2394 26.5525 46.2394Z" fill="url(#paint18_linear_1_71)"/>
</mask>
<g mask="url(#mask9_1_71)">
<path d="M26.5529 46.2392C28.7121 46.2392 30.4625 44.5279 30.4625 42.4167C30.4625 40.3056 28.7121 38.5943 26.5529 38.5943C24.3937 38.5943 22.6432 40.3056 22.6432 42.4167C22.6432 44.5279 24.3937 46.2392 26.5529 46.2392Z" fill="url(#paint19_linear_1_71)"/>
</g>
<mask id="mask10_1_71" style="mask-type:alpha" maskUnits="userSpaceOnUse" x="45" y="38" width="9" height="9">
<path d="M49.1953 46.2394C51.3546 46.2394 53.105 44.528 53.105 42.4169C53.105 40.3058 51.3546 38.5945 49.1953 38.5945C47.0361 38.5945 45.2857 40.3058 45.2857 42.4169C45.2857 44.528 47.0361 46.2394 49.1953 46.2394Z" fill="url(#paint20_linear_1_71)"/>
</mask>
<g mask="url(#mask10_1_71)">
<path d="M49.196 46.2392C51.3552 46.2392 53.1056 44.5279 53.1056 42.4167C53.1056 40.3056 51.3552 38.5943 49.196 38.5943C47.0368 38.5943 45.2864 40.3056 45.2864 42.4167C45.2864 44.5279 47.0368 46.2392 49.196 46.2392Z" fill="url(#paint21_linear_1_71)"/>
</g>
<mask id="mask11_1_71" style="mask-type:alpha" maskUnits="userSpaceOnUse" x="67" y="38" width="9" height="9">
<path d="M71.8382 46.2394C73.9974 46.2394 75.7478 44.528 75.7478 42.4169C75.7478 40.3058 73.9974 38.5945 71.8382 38.5945C69.6789 38.5945 67.9285 40.3058 67.9285 42.4169C67.9285 44.528 69.6789 46.2394 71.8382 46.2394Z" fill="url(#paint22_linear_1_71)"/>
</mask>
<g mask="url(#mask11_1_71)">
<path d="M71.8388 46.2392C73.998 46.2392 75.7484 44.5279 75.7484 42.4167C75.7484 40.3056 73.998 38.5943 71.8388 38.5943C69.6795 38.5943 67.9291 40.3056 67.9291 42.4167C67.9291 44.5279 69.6795 46.2392 71.8388 46.2392Z" fill="url(#paint23_linear_1_71)"/>
</g>
<mask id="mask12_1_71" style="mask-type:alpha" maskUnits="userSpaceOnUse" x="0" y="57" width="8" height="9">
<path d="M3.90962 65.4315C6.06885 65.4315 7.81925 63.7201 7.81925 61.609C7.81925 59.4979 6.06885 57.7865 3.90962 57.7865C1.7504 57.7865 0 59.4979 0 61.609C0 63.7201 1.7504 65.4315 3.90962 65.4315Z" fill="url(#paint24_linear_1_71)"/>
</mask>
<g mask="url(#mask12_1_71)">
<path d="M3.90962 65.4312C6.06885 65.4312 7.81925 63.7198 7.81925 61.6087C7.81925 59.4977 6.06885 57.7863 3.90962 57.7863C1.7504 57.7863 0 59.4977 0 61.6087C0 63.7198 1.7504 65.4312 3.90962 65.4312Z" fill="url(#paint25_linear_1_71)"/>
</g>
<mask id="mask13_1_71" style="mask-type:alpha" maskUnits="userSpaceOnUse" x="22" y="57" width="9" height="9">
<path d="M26.5525 65.4315C28.7117 65.4315 30.4621 63.7201 30.4621 61.609C30.4621 59.4979 28.7117 57.7865 26.5525 57.7865C24.3933 57.7865 22.6429 59.4979 22.6429 61.609C22.6429 63.7201 24.3933 65.4315 26.5525 65.4315Z" fill="url(#paint26_linear_1_71)"/>
</mask>
<g mask="url(#mask13_1_71)">
<path d="M26.5529 65.4312C28.7121 65.4312 30.4625 63.7198 30.4625 61.6087C30.4625 59.4977 28.7121 57.7863 26.5529 57.7863C24.3937 57.7863 22.6432 59.4977 22.6432 61.6087C22.6432 63.7198 24.3937 65.4312 26.5529 65.4312Z" fill="url(#paint27_linear_1_71)"/>
</g>
<mask id="mask14_1_71" style="mask-type:alpha" maskUnits="userSpaceOnUse" x="45" y="57" width="9" height="9">
<path d="M49.1953 65.4315C51.3546 65.4315 53.105 63.7201 53.105 61.609C53.105 59.4979 51.3546 57.7865 49.1953 57.7865C47.0361 57.7865 45.2857 59.4979 45.2857 61.609C45.2857 63.7201 47.0361 65.4315 49.1953 65.4315Z" fill="url(#paint28_linear_1_71)"/>
</mask>
<g mask="url(#mask14_1_71)">
<path d="M49.196 65.4312C51.3552 65.4312 53.1056 63.7198 53.1056 61.6087C53.1056 59.4977 51.3552 57.7863 49.196 57.7863C47.0368 57.7863 45.2864 59.4977 45.2864 61.6087C45.2864 63.7198 47.0368 65.4312 49.196 65.4312Z" fill="url(#paint29_linear_1_71)"/>
</g>
<mask id="mask15_1_71" style="mask-type:alpha" maskUnits="userSpaceOnUse" x="67" y="57" width="9" height="9">
<path d="M71.8382 65.4315C73.9974 65.4315 75.7478 63.7201 75.7478 61.609C75.7478 59.4979 73.9974 57.7865 71.8382 57.7865C69.6789 57.7865 67.9285 59.4979 67.9285 61.609C67.9285 63.7201 69.6789 65.4315 71.8382 65.4315Z" fill="url(#paint30_linear_1_71)"/>
</mask>
<g mask="url(#mask15_1_71)">
<path d="M71.8388 65.4312C73.998 65.4312 75.7484 63.7198 75.7484 61.6087C75.7484 59.4977 73.998 57.7863 71.8388 57.7863C69.6795 57.7863 67.9291 59.4977 67.9291 61.6087C67.9291 63.7198 69.6795 65.4312 71.8388 65.4312Z" fill="url(#paint31_linear_1_71)"/>
</g>
</g>
<defs>
<linearGradient id="paint0_linear_1_71" x1="38.076" y1="88.8678" x2="-13.538" y2="-45.1397" gradientUnits="userSpaceOnUse">
<stop stop-color="#89C5CC"/>
<stop offset="1" stop-color="#89C5CC"/>
</linearGradient>
<linearGradient id="paint1_linear_1_71" x1="38.076" y1="88.8678" x2="-13.538" y2="-45.1397" gradientUnits="userSpaceOnUse">
<stop stop-color="#89C5CC"/>
<stop offset="1" stop-color="#89C5CC"/>
</linearGradient>
<linearGradient id="paint2_linear_1_71" x1="60.7189" y1="88.8678" x2="9.10496" y2="-45.1397" gradientUnits="userSpaceOnUse">
<stop stop-color="#89C5CC"/>
<stop offset="1" stop-color="#89C5CC"/>
</linearGradient>
<linearGradient id="paint3_linear_1_71" x1="60.7193" y1="88.8678" x2="9.10533" y2="-45.1397" gradientUnits="userSpaceOnUse">
<stop stop-color="#89C5CC"/>
<stop offset="1" stop-color="#89C5CC"/>
</linearGradient>
<linearGradient id="paint4_linear_1_71" x1="83.3617" y1="88.8678" x2="31.7478" y2="-45.1397" gradientUnits="userSpaceOnUse">
<stop stop-color="#89C5CC"/>
<stop offset="1" stop-color="#89C5CC"/>
</linearGradient>
<linearGradient id="paint5_linear_1_71" x1="83.3624" y1="88.8678" x2="31.7485" y2="-45.1397" gradientUnits="userSpaceOnUse">
<stop stop-color="#89C5CC"/>
<stop offset="1" stop-color="#89C5CC"/>
</linearGradient>
<linearGradient id="paint6_linear_1_71" x1="106.005" y1="88.8678" x2="54.3906" y2="-45.1397" gradientUnits="userSpaceOnUse">
<stop stop-color="#89C5CC"/>
<stop offset="1" stop-color="#89C5CC"/>
</linearGradient>
<linearGradient id="paint7_linear_1_71" x1="106.005" y1="88.8678" x2="54.3912" y2="-45.1397" gradientUnits="userSpaceOnUse">
<stop stop-color="#89C5CC"/>
<stop offset="1" stop-color="#89C5CC"/>
</linearGradient>
<linearGradient id="paint8_linear_1_71" x1="38.076" y1="108.059" x2="-13.5371" y2="-25.9476" gradientUnits="userSpaceOnUse">
<stop stop-color="#89C5CC"/>
<stop offset="1" stop-color="#89C5CC"/>
</linearGradient>
<linearGradient id="paint9_linear_1_71" x1="38.076" y1="108.059" x2="-13.5371" y2="-25.9475" gradientUnits="userSpaceOnUse">
<stop stop-color="#89C5CC"/>
<stop offset="1" stop-color="#89C5CC"/>
</linearGradient>
<linearGradient id="paint10_linear_1_71" x1="60.7189" y1="108.059" x2="9.10585" y2="-25.9475" gradientUnits="userSpaceOnUse">
<stop stop-color="#89C5CC"/>
<stop offset="1" stop-color="#89C5CC"/>
</linearGradient>
<linearGradient id="paint11_linear_1_71" x1="60.7193" y1="108.059" x2="9.10621" y2="-25.9476" gradientUnits="userSpaceOnUse">
<stop stop-color="#89C5CC"/>
<stop offset="1" stop-color="#89C5CC"/>
</linearGradient>
<linearGradient id="paint12_linear_1_71" x1="83.3617" y1="108.059" x2="31.7487" y2="-25.9475" gradientUnits="userSpaceOnUse">
<stop stop-color="#89C5CC"/>
<stop offset="1" stop-color="#89C5CC"/>
</linearGradient>
<linearGradient id="paint13_linear_1_71" x1="83.3624" y1="108.059" x2="31.7493" y2="-25.9476" gradientUnits="userSpaceOnUse">
<stop stop-color="#89C5CC"/>
<stop offset="1" stop-color="#89C5CC"/>
</linearGradient>
<linearGradient id="paint14_linear_1_71" x1="106.005" y1="108.059" x2="54.3915" y2="-25.9475" gradientUnits="userSpaceOnUse">
<stop stop-color="#89C5CC"/>
<stop offset="1" stop-color="#89C5CC"/>
</linearGradient>
<linearGradient id="paint15_linear_1_71" x1="106.005" y1="108.059" x2="54.3921" y2="-25.9476" gradientUnits="userSpaceOnUse">
<stop stop-color="#89C5CC"/>
<stop offset="1" stop-color="#89C5CC"/>
</linearGradient>
<linearGradient id="paint16_linear_1_71" x1="38.076" y1="127.212" x2="-13.538" y2="-6.79548" gradientUnits="userSpaceOnUse">
<stop stop-color="#89C5CC"/>
<stop offset="1" stop-color="#89C5CC"/>
</linearGradient>
<linearGradient id="paint17_linear_1_71" x1="38.076" y1="127.212" x2="-13.538" y2="-6.79539" gradientUnits="userSpaceOnUse">
<stop stop-color="#89C5CC"/>
<stop offset="1" stop-color="#89C5CC"/>
</linearGradient>
<linearGradient id="paint18_linear_1_71" x1="60.7189" y1="127.212" x2="9.10496" y2="-6.79524" gradientUnits="userSpaceOnUse">
<stop stop-color="#89C5CC"/>
<stop offset="1" stop-color="#89C5CC"/>
</linearGradient>
<linearGradient id="paint19_linear_1_71" x1="60.7193" y1="127.212" x2="9.10533" y2="-6.79543" gradientUnits="userSpaceOnUse">
<stop stop-color="#89C5CC"/>
<stop offset="1" stop-color="#89C5CC"/>
</linearGradient>
<linearGradient id="paint20_linear_1_71" x1="83.3617" y1="127.212" x2="31.7478" y2="-6.79524" gradientUnits="userSpaceOnUse">
<stop stop-color="#89C5CC"/>
<stop offset="1" stop-color="#89C5CC"/>
</linearGradient>
<linearGradient id="paint21_linear_1_71" x1="83.3624" y1="127.212" x2="31.7485" y2="-6.79543" gradientUnits="userSpaceOnUse">
<stop stop-color="#89C5CC"/>
<stop offset="1" stop-color="#89C5CC"/>
</linearGradient>
<linearGradient id="paint22_linear_1_71" x1="106.005" y1="127.212" x2="54.3906" y2="-6.79524" gradientUnits="userSpaceOnUse">
<stop stop-color="#89C5CC"/>
<stop offset="1" stop-color="#89C5CC"/>
</linearGradient>
<linearGradient id="paint23_linear_1_71" x1="106.005" y1="127.212" x2="54.3912" y2="-6.79543" gradientUnits="userSpaceOnUse">
<stop stop-color="#89C5CC"/>
<stop offset="1" stop-color="#89C5CC"/>
</linearGradient>
<linearGradient id="paint24_linear_1_71" x1="38.076" y1="146.404" x2="-13.538" y2="12.3969" gradientUnits="userSpaceOnUse">
<stop stop-color="#89C5CC"/>
<stop offset="1" stop-color="#89C5CC"/>
</linearGradient>
<linearGradient id="paint25_linear_1_71" x1="38.076" y1="146.404" x2="-13.538" y2="12.3966" gradientUnits="userSpaceOnUse">
<stop stop-color="#89C5CC"/>
<stop offset="1" stop-color="#89C5CC"/>
</linearGradient>
<linearGradient id="paint26_linear_1_71" x1="60.7189" y1="146.404" x2="9.10496" y2="12.3968" gradientUnits="userSpaceOnUse">
<stop stop-color="#89C5CC"/>
<stop offset="1" stop-color="#89C5CC"/>
</linearGradient>
<linearGradient id="paint27_linear_1_71" x1="60.7193" y1="146.404" x2="9.10533" y2="12.3966" gradientUnits="userSpaceOnUse">
<stop stop-color="#89C5CC"/>
<stop offset="1" stop-color="#89C5CC"/>
</linearGradient>
<linearGradient id="paint28_linear_1_71" x1="83.3617" y1="146.404" x2="31.7478" y2="12.3968" gradientUnits="userSpaceOnUse">
<stop stop-color="#89C5CC"/>
<stop offset="1" stop-color="#89C5CC"/>
</linearGradient>
<linearGradient id="paint29_linear_1_71" x1="83.3624" y1="146.404" x2="31.7485" y2="12.3966" gradientUnits="userSpaceOnUse">
<stop stop-color="#89C5CC"/>
<stop offset="1" stop-color="#89C5CC"/>
</linearGradient>
<linearGradient id="paint30_linear_1_71" x1="106.005" y1="146.404" x2="54.3906" y2="12.3968" gradientUnits="userSpaceOnUse">
<stop stop-color="#89C5CC"/>
<stop offset="1" stop-color="#89C5CC"/>
</linearGradient>
<linearGradient id="paint31_linear_1_71" x1="106.005" y1="146.404" x2="54.3912" y2="12.3966" gradientUnits="userSpaceOnUse">
<stop stop-color="#89C5CC"/>
<stop offset="1" stop-color="#89C5CC"/>
</linearGradient>
</defs>
</svg>
