<svg width="103" height="22" viewBox="0 0 103 22" fill="none" xmlns="http://www.w3.org/2000/svg">
<path d="M7.71094 9.29166V11.7917H0.484375V9.29166H7.71094ZM2.125 6.41666H5.45313V17.6042C5.45313 17.9114 5.5 18.151 5.59375 18.3229C5.6875 18.4896 5.81771 18.6068 5.98438 18.6745C6.15625 18.7422 6.35417 18.776 6.57813 18.776C6.73438 18.776 6.89063 18.763 7.04688 18.737C7.20312 18.7057 7.32292 18.6823 7.40625 18.6667L7.92969 21.1432C7.76302 21.1953 7.52865 21.2552 7.22656 21.3229C6.92448 21.3958 6.55729 21.4401 6.125 21.4557C5.32292 21.487 4.61979 21.3802 4.01563 21.1354C3.41667 20.8906 2.95052 20.5104 2.61719 19.9948C2.28385 19.4792 2.11979 18.8281 2.125 18.0417V6.41666ZM9.87891 21.2917V9.29166H13.1055V11.3854H13.2305C13.4492 10.6406 13.8164 10.0781 14.332 9.69791C14.8477 9.31249 15.4414 9.11978 16.1133 9.11978C16.2799 9.11978 16.4596 9.1302 16.6523 9.15103C16.8451 9.17186 17.0143 9.20051 17.1602 9.23697V12.1901C17.0039 12.1432 16.7878 12.1016 16.5117 12.0651C16.2357 12.0286 15.9831 12.0104 15.7539 12.0104C15.2643 12.0104 14.8268 12.1172 14.4414 12.3307C14.0612 12.5391 13.7591 12.8307 13.5352 13.2057C13.3164 13.5807 13.207 14.013 13.207 14.5026V21.2917H9.87891ZM23.791 21.526C22.5566 21.526 21.4941 21.276 20.6035 20.776C19.7181 20.2708 19.0358 19.5573 18.5566 18.6354C18.0775 17.7083 17.8379 16.612 17.8379 15.3463C17.8379 14.112 18.0775 13.0286 18.5566 12.0963C19.0358 11.1641 19.7103 10.4375 20.5801 9.91666C21.4551 9.39582 22.4811 9.13541 23.6582 9.13541C24.4499 9.13541 25.1868 9.26301 25.8691 9.51822C26.5566 9.76822 27.1556 10.1458 27.666 10.651C28.1816 11.1562 28.5827 11.7917 28.8691 12.5573C29.1556 13.3177 29.2988 14.2083 29.2988 15.2292V16.1432H19.166V14.0807H26.166C26.166 13.6016 26.0618 13.1771 25.8535 12.8073C25.6452 12.4375 25.3561 12.1484 24.9863 11.9401C24.6217 11.7266 24.1973 11.6198 23.7129 11.6198C23.2077 11.6198 22.7598 11.737 22.3691 11.9713C21.9837 12.2005 21.6816 12.5104 21.4629 12.901C21.2441 13.2864 21.1322 13.7161 21.127 14.1901V16.151C21.127 16.7448 21.2363 17.2578 21.4551 17.6901C21.679 18.1224 21.9941 18.4557 22.4004 18.6901C22.8066 18.9245 23.2884 19.0417 23.8457 19.0417C24.2155 19.0417 24.554 18.9896 24.8613 18.8854C25.1686 18.7812 25.4316 18.625 25.6504 18.4167C25.8691 18.2083 26.0358 17.9531 26.1504 17.651L29.2285 17.8542C29.0723 18.5937 28.752 19.2396 28.2676 19.7917C27.7884 20.3385 27.1686 20.7656 26.4082 21.0729C25.653 21.375 24.7806 21.526 23.791 21.526ZM31.4707 21.2917V9.29166H34.7988V21.2917H31.4707ZM33.1426 7.74478C32.6478 7.74478 32.2233 7.58072 31.8691 7.25259C31.5202 6.91926 31.3457 6.52082 31.3457 6.05728C31.3457 5.59895 31.5202 5.20572 31.8691 4.87759C32.2233 4.54426 32.6478 4.37759 33.1426 4.37759C33.6374 4.37759 34.0592 4.54426 34.4082 4.87759C34.7624 5.20572 34.9395 5.59895 34.9395 6.05728C34.9395 6.52082 34.7624 6.91926 34.4082 7.25259C34.0592 7.58072 33.6374 7.74478 33.1426 7.74478ZM40.793 14.3542V21.2917H37.4648V9.29166H40.6367V11.4088H40.7773C41.043 10.7109 41.4883 10.1588 42.1133 9.75259C42.7383 9.34114 43.4961 9.13541 44.3867 9.13541C45.2201 9.13541 45.9466 9.3177 46.5664 9.68228C47.1862 10.0469 47.668 10.5677 48.0117 11.2448C48.3555 11.9167 48.5273 12.7187 48.5273 13.651V21.2917H45.1992V14.2448C45.2044 13.5104 45.0169 12.9375 44.6367 12.526C44.2565 12.1094 43.7331 11.901 43.0664 11.901C42.6185 11.901 42.2227 11.9974 41.8789 12.1901C41.5404 12.3828 41.2747 12.6641 41.082 13.0338C40.8945 13.3984 40.7982 13.8385 40.793 14.3542ZM56.6191 21.526C55.3848 21.526 54.3223 21.276 53.4316 20.776C52.5462 20.2708 51.8639 19.5573 51.3848 18.6354C50.9056 17.7083 50.666 16.612 50.666 15.3463C50.666 14.112 50.9056 13.0286 51.3848 12.0963C51.8639 11.1641 52.5384 10.4375 53.4082 9.91666C54.2832 9.39582 55.3092 9.13541 56.4863 9.13541C57.278 9.13541 58.015 9.26301 58.6973 9.51822C59.3848 9.76822 59.9837 10.1458 60.4941 10.651C61.0098 11.1562 61.4108 11.7917 61.6973 12.5573C61.9837 13.3177 62.127 14.2083 62.127 15.2292V16.1432H51.9941V14.0807H58.9941C58.9941 13.6016 58.89 13.1771 58.6816 12.8073C58.4733 12.4375 58.1842 12.1484 57.8145 11.9401C57.4499 11.7266 57.0254 11.6198 56.541 11.6198C56.0358 11.6198 55.5879 11.737 55.1973 11.9713C54.8118 12.2005 54.5098 12.5104 54.291 12.901C54.0723 13.2864 53.9603 13.7161 53.9551 14.1901V16.151C53.9551 16.7448 54.0645 17.2578 54.2832 17.6901C54.5072 18.1224 54.8223 18.4557 55.2285 18.6901C55.6348 18.9245 56.1165 19.0417 56.6738 19.0417C57.0436 19.0417 57.3822 18.9896 57.6895 18.8854C57.9967 18.7812 58.2598 18.625 58.4785 18.4167C58.6973 18.2083 58.8639 17.9531 58.9785 17.651L62.0566 17.8542C61.9004 18.5937 61.5801 19.2396 61.0957 19.7917C60.6165 20.3385 59.9967 20.7656 59.2363 21.0729C58.4811 21.375 57.6087 21.526 56.6191 21.526ZM66.2441 21.4948C65.7285 21.4948 65.2858 21.3125 64.916 20.9479C64.5514 20.5781 64.3691 20.1354 64.3691 19.6198C64.3691 19.1094 64.5514 18.6719 64.916 18.3073C65.2858 17.9427 65.7285 17.7604 66.2441 17.7604C66.7441 17.7604 67.1816 17.9427 67.5566 18.3073C67.9316 18.6719 68.1191 19.1094 68.1191 19.6198C68.1191 19.9635 68.0306 20.2786 67.8535 20.5651C67.6816 20.8463 67.4551 21.0729 67.1738 21.2448C66.8926 21.4114 66.5827 21.4948 66.2441 21.4948ZM70.8516 21.2917V9.29166H74.0234V11.4088H74.1641C74.4141 10.7057 74.8307 10.151 75.4141 9.74478C75.9974 9.33853 76.6953 9.13541 77.5078 9.13541C78.3307 9.13541 79.0313 9.34114 79.6094 9.75259C80.1875 10.1588 80.5729 10.7109 80.7656 11.4088H80.8906C81.1354 10.7213 81.5781 10.1719 82.2188 9.76041C82.8646 9.34374 83.6276 9.13541 84.5078 9.13541C85.6276 9.13541 86.5365 9.49218 87.2344 10.2057C87.9375 10.9141 88.2891 11.9193 88.2891 13.2213V21.2917H84.9688V13.8776C84.9688 13.2109 84.7917 12.7109 84.4375 12.3776C84.0833 12.0443 83.6406 11.8776 83.1094 11.8776C82.5052 11.8776 82.0339 12.0703 81.6953 12.4557C81.3568 12.8359 81.1875 13.3385 81.1875 13.9635V21.2917H77.9609V13.8073C77.9609 13.2187 77.7917 12.75 77.4531 12.401C77.1198 12.0521 76.6797 11.8776 76.1328 11.8776C75.763 11.8776 75.4297 11.9713 75.1328 12.1588C74.8411 12.3411 74.6094 12.5989 74.4375 12.9323C74.2656 13.2604 74.1797 13.6458 74.1797 14.0885V21.2917H70.8516ZM96.3867 21.526C95.1523 21.526 94.0898 21.276 93.1992 20.776C92.3138 20.2708 91.6315 19.5573 91.1523 18.6354C90.6732 17.7083 90.4336 16.612 90.4336 15.3463C90.4336 14.112 90.6732 13.0286 91.1523 12.0963C91.6315 11.1641 92.306 10.4375 93.1758 9.91666C94.0508 9.39582 95.0768 9.13541 96.2539 9.13541C97.0456 9.13541 97.7826 9.26301 98.4648 9.51822C99.1523 9.76822 99.7513 10.1458 100.262 10.651C100.777 11.1562 101.178 11.7917 101.465 12.5573C101.751 13.3177 101.895 14.2083 101.895 15.2292V16.1432H91.7617V14.0807H98.7617C98.7617 13.6016 98.6576 13.1771 98.4492 12.8073C98.2409 12.4375 97.9518 12.1484 97.582 11.9401C97.2174 11.7266 96.793 11.6198 96.3086 11.6198C95.8034 11.6198 95.3555 11.737 94.9648 11.9713C94.5794 12.2005 94.2773 12.5104 94.0586 12.901C93.8398 13.2864 93.7279 13.7161 93.7227 14.1901V16.151C93.7227 16.7448 93.832 17.2578 94.0508 17.6901C94.2747 18.1224 94.5898 18.4557 94.9961 18.6901C95.4023 18.9245 95.8841 19.0417 96.4414 19.0417C96.8112 19.0417 97.1497 18.9896 97.457 18.8854C97.7643 18.7812 98.0273 18.625 98.2461 18.4167C98.4648 18.2083 98.6315 17.9531 98.7461 17.651L101.824 17.8542C101.668 18.5937 101.348 19.2396 100.863 19.7917C100.384 20.3385 99.7643 20.7656 99.0039 21.0729C98.2487 21.375 97.3763 21.526 96.3867 21.526Z" fill="#89C5CC"/>
</svg>
